<svg width="56" height="56" viewBox="0 0 56 56" fill="none" xmlns="http://www.w3.org/2000/svg">
<path d="M14.3535 14.4653C14.3535 10.7576 17.3592 7.75195 21.0668 7.75195H27.8341V21.1786H21.0668C17.3592 21.1786 14.3535 18.173 14.3535 14.4653Z" fill="url(#paint0_radial_2170_126)"/>
<path d="M14.3535 14.4653C14.3535 10.7576 17.3592 7.75195 21.0668 7.75195H27.8341V21.1786H21.0668C17.3592 21.1786 14.3535 18.173 14.3535 14.4653Z" fill="url(#paint1_radial_2170_126)"/>
<path d="M41.3105 14.4653C41.3105 10.7576 38.3049 7.75195 34.5972 7.75195H27.83V21.1786H34.5972C38.3049 21.1786 41.3105 18.173 41.3105 14.4653Z" fill="url(#paint2_radial_2170_126)"/>
<path d="M41.3105 14.4653C41.3105 10.7576 38.3049 7.75195 34.5972 7.75195H27.83V21.1786H34.5972C38.3049 21.1786 41.3105 18.173 41.3105 14.4653Z" fill="url(#paint3_radial_2170_126)"/>
<path d="M41.3105 27.8911C41.3105 24.1834 38.2779 21.1777 34.5703 21.1777C30.8626 21.1777 27.83 24.1834 27.83 27.8911C27.83 31.5987 30.8626 34.6044 34.5703 34.6044C38.2779 34.6044 41.3105 31.5987 41.3105 27.8911Z" fill="url(#paint4_radial_2170_126)"/>
<path d="M41.3105 27.8911C41.3105 24.1834 38.2779 21.1777 34.5703 21.1777C30.8626 21.1777 27.83 24.1834 27.83 27.8911C27.83 31.5987 30.8626 34.6044 34.5703 34.6044C38.2779 34.6044 41.3105 31.5987 41.3105 27.8911Z" fill="url(#paint5_radial_2170_126)"/>
<path d="M14.3535 27.8911C14.3535 24.1834 17.3592 21.1777 21.0668 21.1777H27.8341V34.6044H21.0668C17.3592 34.6044 14.3535 31.5987 14.3535 27.8911Z" fill="url(#paint6_radial_2170_126)"/>
<path d="M14.3535 27.8911C14.3535 24.1834 17.3592 21.1777 21.0668 21.1777H27.8341V34.6044H21.0668C17.3592 34.6044 14.3535 31.5987 14.3535 27.8911Z" fill="url(#paint7_radial_2170_126)"/>
<path d="M14.3535 41.3193C14.3535 37.6116 17.3592 34.606 21.0668 34.606H27.8341V41.3193C27.8341 45.027 24.8015 48.0326 21.0938 48.0326C17.3861 48.0326 14.3535 45.027 14.3535 41.3193Z" fill="url(#paint8_radial_2170_126)"/>
<path d="M14.3535 41.3193C14.3535 37.6116 17.3592 34.606 21.0668 34.606H27.8341V41.3193C27.8341 45.027 24.8015 48.0326 21.0938 48.0326C17.3861 48.0326 14.3535 45.027 14.3535 41.3193Z" fill="url(#paint9_radial_2170_126)"/>
<foreignObject x="-10.7413" y="-10.7413" width="77.4827" height="77.4827"><div xmlns="http://www.w3.org/1999/xhtml" style="backdrop-filter:blur(5.37px);clip-path:url(#bgblur_0_2170_126_clip_path);height:100%;width:100%"></div></foreignObject><g data-figma-bg-blur-radius="10.7413">
<path d="M0 12.084C0 5.41019 5.41019 0 12.084 0H43.916C50.5898 0 56 5.41019 56 12.084V43.916C56 50.5898 50.5898 56 43.916 56H12.084C5.41019 56 0 50.5898 0 43.916V12.084Z" fill="url(#paint10_linear_2170_126)"/>
<path d="M0 12.084C0 5.41019 5.41019 0 12.084 0H43.916C50.5898 0 56 5.41019 56 12.084V43.916C56 50.5898 50.5898 56 43.916 56H12.084C5.41019 56 0 50.5898 0 43.916V12.084Z" fill="#141414"/>
</g>
<path d="M14.3535 14.4653C14.3535 10.7576 17.3592 7.75195 21.0668 7.75195H27.8341V21.1786H21.0668C17.3592 21.1786 14.3535 18.173 14.3535 14.4653Z" fill="url(#paint11_radial_2170_126)"/>
<path d="M14.3535 14.4653C14.3535 10.7576 17.3592 7.75195 21.0668 7.75195H27.8341V21.1786H21.0668C17.3592 21.1786 14.3535 18.173 14.3535 14.4653Z" fill="url(#paint12_radial_2170_126)"/>
<path d="M41.3105 14.4653C41.3105 10.7576 38.3049 7.75195 34.5972 7.75195H27.83V21.1786H34.5972C38.3049 21.1786 41.3105 18.173 41.3105 14.4653Z" fill="url(#paint13_radial_2170_126)"/>
<path d="M41.3105 14.4653C41.3105 10.7576 38.3049 7.75195 34.5972 7.75195H27.83V21.1786H34.5972C38.3049 21.1786 41.3105 18.173 41.3105 14.4653Z" fill="url(#paint14_radial_2170_126)"/>
<path d="M41.3105 27.8911C41.3105 24.1834 38.2779 21.1777 34.5703 21.1777C30.8626 21.1777 27.83 24.1834 27.83 27.8911C27.83 31.5987 30.8626 34.6044 34.5703 34.6044C38.2779 34.6044 41.3105 31.5987 41.3105 27.8911Z" fill="url(#paint15_radial_2170_126)"/>
<path d="M41.3105 27.8911C41.3105 24.1834 38.2779 21.1777 34.5703 21.1777C30.8626 21.1777 27.83 24.1834 27.83 27.8911C27.83 31.5987 30.8626 34.6044 34.5703 34.6044C38.2779 34.6044 41.3105 31.5987 41.3105 27.8911Z" fill="url(#paint16_radial_2170_126)"/>
<path d="M14.3535 27.8911C14.3535 24.1834 17.3592 21.1777 21.0668 21.1777H27.8341V34.6044H21.0668C17.3592 34.6044 14.3535 31.5987 14.3535 27.8911Z" fill="url(#paint17_radial_2170_126)"/>
<path d="M14.3535 27.8911C14.3535 24.1834 17.3592 21.1777 21.0668 21.1777H27.8341V34.6044H21.0668C17.3592 34.6044 14.3535 31.5987 14.3535 27.8911Z" fill="url(#paint18_radial_2170_126)"/>
<path d="M14.3535 41.3193C14.3535 37.6116 17.3592 34.606 21.0668 34.606H27.8341V41.3193C27.8341 45.027 24.8015 48.0326 21.0938 48.0326C17.3861 48.0326 14.3535 45.027 14.3535 41.3193Z" fill="url(#paint19_radial_2170_126)"/>
<path d="M14.3535 41.3193C14.3535 37.6116 17.3592 34.606 21.0668 34.606H27.8341V41.3193C27.8341 45.027 24.8015 48.0326 21.0938 48.0326C17.3861 48.0326 14.3535 45.027 14.3535 41.3193Z" fill="url(#paint20_radial_2170_126)"/>
<defs>
<clipPath id="bgblur_0_2170_126_clip_path" transform="translate(10.7413 10.7413)"><path d="M0 12.084C0 5.41019 5.41019 0 12.084 0H43.916C50.5898 0 56 5.41019 56 12.084V43.916C56 50.5898 50.5898 56 43.916 56H12.084C5.41019 56 0 50.5898 0 43.916V12.084Z"/>
</clipPath><radialGradient id="paint0_radial_2170_126" cx="0" cy="0" r="1" gradientTransform="matrix(6.7403 6.71333 -6.7403 6.71333 21.0938 14.4653)" gradientUnits="userSpaceOnUse">
<stop stop-color="#FF6342"/>
<stop offset="1" stop-color="#F34628"/>
</radialGradient>
<radialGradient id="paint1_radial_2170_126" cx="0" cy="0" r="1" gradientTransform="matrix(6.7403 6.71333 -6.7403 6.71333 21.0938 14.4653)" gradientUnits="userSpaceOnUse">
<stop stop-color="#FF6342"/>
<stop offset="1" stop-color="#F34628"/>
</radialGradient>
<radialGradient id="paint2_radial_2170_126" cx="0" cy="0" r="1" gradientTransform="matrix(-6.40328 6.71333 6.7403 6.37767 34.5703 14.4653)" gradientUnits="userSpaceOnUse">
<stop stop-color="#FF867C"/>
<stop offset="1" stop-color="#FF756C"/>
</radialGradient>
<radialGradient id="paint3_radial_2170_126" cx="0" cy="0" r="1" gradientTransform="matrix(-6.40328 6.71333 6.7403 6.37767 34.5703 14.4653)" gradientUnits="userSpaceOnUse">
<stop stop-color="#FF867C"/>
<stop offset="1" stop-color="#FF756C"/>
</radialGradient>
<radialGradient id="paint4_radial_2170_126" cx="0" cy="0" r="1" gradientUnits="userSpaceOnUse" gradientTransform="translate(34.5703 27.8911) rotate(90) scale(6.71333 6.7403)">
<stop stop-color="#1FC3F6"/>
<stop offset="1" stop-color="#41CDFB"/>
</radialGradient>
<radialGradient id="paint5_radial_2170_126" cx="0" cy="0" r="1" gradientUnits="userSpaceOnUse" gradientTransform="translate(34.5703 27.8911) rotate(90) scale(6.71333 6.7403)">
<stop stop-color="#1FC3F6"/>
<stop offset="1" stop-color="#41CDFB"/>
</radialGradient>
<radialGradient id="paint6_radial_2170_126" cx="0" cy="0" r="1" gradientUnits="userSpaceOnUse" gradientTransform="translate(21.0938 27.8911) rotate(90) scale(6.71333 6.7403)">
<stop stop-color="#AC64F7"/>
<stop offset="1" stop-color="#A155F2"/>
</radialGradient>
<radialGradient id="paint7_radial_2170_126" cx="0" cy="0" r="1" gradientUnits="userSpaceOnUse" gradientTransform="translate(21.0938 27.8911) rotate(90) scale(6.71333 6.7403)">
<stop stop-color="#AC64F7"/>
<stop offset="1" stop-color="#A155F2"/>
</radialGradient>
<radialGradient id="paint8_radial_2170_126" cx="0" cy="0" r="1" gradientUnits="userSpaceOnUse" gradientTransform="translate(21.0938 41.3193) rotate(90) scale(6.71333 6.7403)">
<stop stop-color="#00DD8C"/>
<stop offset="1" stop-color="#00C984"/>
</radialGradient>
<radialGradient id="paint9_radial_2170_126" cx="0" cy="0" r="1" gradientUnits="userSpaceOnUse" gradientTransform="translate(21.0938 41.3193) rotate(90) scale(6.71333 6.7403)">
<stop stop-color="#00DD8C"/>
<stop offset="1" stop-color="#00C984"/>
</radialGradient>
<linearGradient id="paint10_linear_2170_126" x1="28" y1="0" x2="28" y2="56" gradientUnits="userSpaceOnUse">
<stop stop-opacity="0.4"/>
<stop offset="1" stop-opacity="0.1"/>
</linearGradient>
<radialGradient id="paint11_radial_2170_126" cx="0" cy="0" r="1" gradientTransform="matrix(6.7403 6.71333 -6.7403 6.71333 21.0938 14.4653)" gradientUnits="userSpaceOnUse">
<stop stop-color="#FF6342"/>
<stop offset="1" stop-color="#F34628"/>
</radialGradient>
<radialGradient id="paint12_radial_2170_126" cx="0" cy="0" r="1" gradientTransform="matrix(6.7403 6.71333 -6.7403 6.71333 21.0938 14.4653)" gradientUnits="userSpaceOnUse">
<stop stop-color="#FF6342"/>
<stop offset="1" stop-color="#F34628"/>
</radialGradient>
<radialGradient id="paint13_radial_2170_126" cx="0" cy="0" r="1" gradientTransform="matrix(-6.40328 6.71333 6.7403 6.37767 34.5703 14.4653)" gradientUnits="userSpaceOnUse">
<stop stop-color="#FF867C"/>
<stop offset="1" stop-color="#FF756C"/>
</radialGradient>
<radialGradient id="paint14_radial_2170_126" cx="0" cy="0" r="1" gradientTransform="matrix(-6.40328 6.71333 6.7403 6.37767 34.5703 14.4653)" gradientUnits="userSpaceOnUse">
<stop stop-color="#FF867C"/>
<stop offset="1" stop-color="#FF756C"/>
</radialGradient>
<radialGradient id="paint15_radial_2170_126" cx="0" cy="0" r="1" gradientUnits="userSpaceOnUse" gradientTransform="translate(34.5703 27.8911) rotate(90) scale(6.71333 6.7403)">
<stop stop-color="#1FC3F6"/>
<stop offset="1" stop-color="#41CDFB"/>
</radialGradient>
<radialGradient id="paint16_radial_2170_126" cx="0" cy="0" r="1" gradientUnits="userSpaceOnUse" gradientTransform="translate(34.5703 27.8911) rotate(90) scale(6.71333 6.7403)">
<stop stop-color="#1FC3F6"/>
<stop offset="1" stop-color="#41CDFB"/>
</radialGradient>
<radialGradient id="paint17_radial_2170_126" cx="0" cy="0" r="1" gradientUnits="userSpaceOnUse" gradientTransform="translate(21.0938 27.8911) rotate(90) scale(6.71333 6.7403)">
<stop stop-color="#AC64F7"/>
<stop offset="1" stop-color="#A155F2"/>
</radialGradient>
<radialGradient id="paint18_radial_2170_126" cx="0" cy="0" r="1" gradientUnits="userSpaceOnUse" gradientTransform="translate(21.0938 27.8911) rotate(90) scale(6.71333 6.7403)">
<stop stop-color="#AC64F7"/>
<stop offset="1" stop-color="#A155F2"/>
</radialGradient>
<radialGradient id="paint19_radial_2170_126" cx="0" cy="0" r="1" gradientUnits="userSpaceOnUse" gradientTransform="translate(21.0938 41.3193) rotate(90) scale(6.71333 6.7403)">
<stop stop-color="#00DD8C"/>
<stop offset="1" stop-color="#00C984"/>
</radialGradient>
<radialGradient id="paint20_radial_2170_126" cx="0" cy="0" r="1" gradientUnits="userSpaceOnUse" gradientTransform="translate(21.0938 41.3193) rotate(90) scale(6.71333 6.7403)">
<stop stop-color="#00DD8C"/>
<stop offset="1" stop-color="#00C984"/>
</radialGradient>
</defs>
</svg>
