<svg width="15" height="11" viewBox="0 0 15 11" fill="none" xmlns="http://www.w3.org/2000/svg">
<path d="M0.859523 6.27357C0.624951 5.76528 0.624951 5.17889 0.859523 4.6706C1.94534 2.31777 4.33247 0.684082 7.10269 0.684082C9.87291 0.684082 12.26 2.31777 13.3459 4.6706C13.5804 5.17889 13.5804 5.76528 13.3459 6.27357C12.26 8.6264 9.87291 10.2601 7.10269 10.2601C4.33247 10.2601 1.94534 8.6264 0.859523 6.27357Z" stroke="black" stroke-width="1.368"/>
<path d="M9.16293 5.47208C9.16293 6.60537 8.24053 7.52408 7.10269 7.52408C5.96485 7.52408 5.04245 6.60537 5.04245 5.47208C5.04245 4.33879 5.96485 3.42008 7.10269 3.42008C8.24053 3.42008 9.16293 4.33879 9.16293 5.47208Z" stroke="black" stroke-width="1.368"/>
</svg>
