<svg width="16" height="16" viewBox="0 0 16 16" fill="none" xmlns="http://www.w3.org/2000/svg">
<path d="M1.02941 12.1596L1.63481 12.3622H1.63481L1.02941 12.1596ZM1.74353 10.0258L1.13813 9.82322H1.13813L1.74353 10.0258ZM2.48039 8.83834L2.9309 9.29066L2.9309 9.29066L2.48039 8.83834ZM9.59674 1.75044L9.14623 1.29812V1.29812L9.59674 1.75044ZM13.4095 5.54795L13.86 6.00027V6.00027L13.4095 5.54795ZM6.29314 12.6358L5.84263 12.1835L5.84263 12.1835L6.29314 12.6358ZM5.10088 13.3697L5.30203 13.9756H5.30203L5.10088 13.3697ZM2.95853 14.081L3.15968 14.6869H3.15968L2.95853 14.081ZM5.90229 12.9992L5.5188 12.4888L5.5188 12.4888L5.90229 12.9992ZM5.60197 13.1841L5.31898 12.6118L5.60197 13.1841ZM14.328 2.80612L13.7564 3.0905V3.0905L14.328 2.80612ZM14.328 4.49227L13.7564 4.2079V4.2079L14.328 4.49227ZM10.6567 0.835618L10.9392 1.40809V1.40809L10.6567 0.835618ZM12.3496 0.835618L12.067 1.40809V1.40809L12.3496 0.835618ZM1.92997 9.52674L2.50131 9.81155L2.50131 9.81155L1.92997 9.52674ZM2.11557 9.22762L1.60667 8.84217L1.60667 8.84217L2.11557 9.22762ZM0.674162 13.8595L0.0731224 14.0747V14.0747L0.674162 13.8595ZM1.25182 14.4348L1.03815 15.0364L1.03815 15.0364L1.25182 14.4348ZM9.09406 2.24753C8.84425 1.99872 8.44004 1.99953 8.19122 2.24934C7.94241 2.49915 7.94322 2.90336 8.19303 3.15218L8.64355 2.69985L9.09406 2.24753ZM12.0058 6.94968C12.2556 7.19849 12.6598 7.19768 12.9086 6.94787C13.1574 6.69806 13.1566 6.29385 12.9068 6.04504L12.4563 6.49736L12.0058 6.94968ZM1.02941 12.1596L1.63481 12.3622L2.34892 10.2284L1.74353 10.0258L1.13813 9.82322L0.424015 11.957L1.02941 12.1596ZM2.48039 8.83834L2.9309 9.29066L10.0473 2.20277L9.59674 1.75044L9.14623 1.29812L2.02987 8.38601L2.48039 8.83834ZM13.4095 5.54795L12.959 5.09563L5.84263 12.1835L6.29314 12.6358L6.74365 13.0882L13.86 6.00027L13.4095 5.54795ZM5.10088 13.3697L4.89973 12.7639L2.75738 13.4751L2.95853 14.081L3.15968 14.6869L5.30203 13.9756L5.10088 13.3697ZM6.29314 12.6358L5.84263 12.1835C5.64069 12.3847 5.58116 12.442 5.5188 12.4888L5.90229 12.9992L6.28578 13.5096C6.43545 13.3971 6.56581 13.2653 6.74365 13.0882L6.29314 12.6358ZM5.10088 13.3697L5.30203 13.9756C5.54066 13.8964 5.71717 13.8393 5.88496 13.7563L5.60197 13.1841L5.31898 12.6118C5.24888 12.6465 5.17062 12.6739 4.89973 12.7639L5.10088 13.3697ZM5.90229 12.9992L5.5188 12.4888C5.45619 12.5358 5.3893 12.577 5.31898 12.6118L5.60197 13.1841L5.88496 13.7563C6.0259 13.6866 6.16009 13.604 6.28578 13.5096L5.90229 12.9992ZM13.4095 1.75045L12.959 2.20277C13.5153 2.75689 13.676 2.9289 13.7564 3.0905L14.328 2.80612L14.8996 2.52175C14.7021 2.12493 14.3431 1.77929 13.86 1.29813L13.4095 1.75045ZM13.4095 5.54795L13.86 6.00027C14.3431 5.5191 14.7021 5.17346 14.8996 4.77665L14.328 4.49227L13.7564 4.2079C13.676 4.3695 13.5153 4.5415 12.959 5.09563L13.4095 5.54795ZM14.328 2.80612L13.7564 3.0905C13.9316 3.44261 13.9316 3.85578 13.7564 4.2079L14.328 4.49227L14.8996 4.77665C15.253 4.06631 15.253 3.23209 14.8996 2.52175L14.328 2.80612ZM9.59674 1.75044L10.0473 2.20277C10.6034 1.64885 10.7763 1.48847 10.9392 1.40809L10.6567 0.835618L10.3741 0.263148C9.97632 0.459482 9.62954 0.816751 9.14623 1.29812L9.59674 1.75044ZM13.4095 1.75045L13.86 1.29813C13.3767 0.816748 13.0299 0.459482 12.6321 0.263148L12.3496 0.835618L12.067 1.40809C12.2299 1.48847 12.4028 1.64885 12.959 2.20277L13.4095 1.75045ZM10.6567 0.835618L10.9392 1.40809C11.2945 1.23275 11.7118 1.23275 12.067 1.40809L12.3496 0.835618L12.6321 0.263148C11.9207 -0.0880047 11.0856 -0.0880047 10.3741 0.263148L10.6567 0.835618ZM1.74353 10.0258L2.34892 10.2284C2.43926 9.9585 2.4667 9.88098 2.50131 9.81155L1.92997 9.52674L1.35862 9.24193C1.27512 9.40943 1.21763 9.58567 1.13813 9.82322L1.74353 10.0258ZM2.48039 8.83834L2.02987 8.38601C1.85208 8.5631 1.71966 8.69299 1.60667 8.84217L2.11557 9.22762L2.62448 9.61307C2.67144 9.55107 2.72892 9.49183 2.9309 9.29066L2.48039 8.83834ZM1.92997 9.52674L2.50131 9.81155C2.53609 9.74178 2.57732 9.67533 2.62448 9.61307L2.11557 9.22762L1.60667 8.84217C1.51177 8.96746 1.42873 9.10128 1.35862 9.24193L1.92997 9.52674ZM1.02941 12.1596L0.424015 11.957C0.272842 12.4087 0.144737 12.7895 0.0726139 13.0952C0.00273186 13.3914 -0.0473357 13.7382 0.0731224 14.0747L0.674162 13.8595L1.2752 13.6443C1.28523 13.6723 1.25756 13.6331 1.3153 13.3883C1.37079 13.1531 1.47553 12.8381 1.63481 12.3622L1.02941 12.1596ZM2.95853 14.081L2.75738 13.4751C2.27967 13.6337 1.9631 13.7382 1.72656 13.7935C1.48058 13.8511 1.43934 13.824 1.46548 13.8333L1.25182 14.4348L1.03815 15.0364C1.37398 15.1557 1.72041 15.1063 2.01753 15.0367C2.32409 14.965 2.70604 14.8375 3.15968 14.6869L2.95853 14.081ZM0.674162 13.8595L0.0731224 14.0747C0.234046 14.5241 0.588748 14.8768 1.03815 15.0364L1.25182 14.4348L1.46548 13.8333C1.37591 13.8014 1.30648 13.7317 1.2752 13.6443L0.674162 13.8595ZM8.64355 2.69985L8.19303 3.15218L12.0058 6.94968L12.4563 6.49736L12.9068 6.04504L9.09406 2.24753L8.64355 2.69985Z" fill="#605F60"/>
</svg>
