<svg width="12" height="12" viewBox="0 0 12 12" fill="none" xmlns="http://www.w3.org/2000/svg">
<path d="M6.40462 0.532227C6.40462 0.238411 6.16643 0.000226557 5.87262 0.000226557C5.5788 0.000226557 5.34062 0.238411 5.34062 0.532227L5.87262 0.532227L6.40462 0.532227ZM5.34062 7.03445C5.34062 7.32826 5.5788 7.56645 5.87262 7.56645C6.16643 7.56645 6.40462 7.32826 6.40462 7.03445H5.87262H5.34062ZM8.62198 6.22916C8.83016 6.02182 8.83083 5.68498 8.62349 5.4768C8.41615 5.26863 8.07931 5.26795 7.87113 5.47529L8.24656 5.85223L8.62198 6.22916ZM6.29227 7.79869L5.91685 7.42176V7.42176L6.29227 7.79869ZM5.45296 7.79869L5.82839 7.42176H5.82839L5.45296 7.79869ZM3.8741 5.47529C3.66593 5.26795 3.32908 5.26863 3.12174 5.4768C2.9144 5.68498 2.91507 6.02182 3.12325 6.22916L3.49868 5.85223L3.8741 5.47529ZM1.06325 8.21667C1.06325 7.92286 0.825065 7.68467 0.53125 7.68467C0.237435 7.68467 -0.000750005 7.92286 -0.000750005 8.21667H0.53125H1.06325ZM11.746 8.21667C11.746 7.92286 11.5078 7.68467 11.214 7.68467C10.9202 7.68467 10.682 7.92286 10.682 8.21667H11.214H11.746ZM10.2418 10.9789L10.0011 10.5045V10.5045L10.2418 10.9789ZM11.0199 10.204L11.4935 10.4463V10.4463L11.0199 10.204ZM0.725308 10.204L0.251685 10.4463L0.725308 10.204ZM1.5034 10.9789L1.26264 11.4534H1.26264L1.5034 10.9789ZM5.87262 0.532227L5.34062 0.532227L5.34062 7.03445H5.87262H6.40462L6.40462 0.532227L5.87262 0.532227ZM8.24656 5.85223L7.87113 5.47529L5.91685 7.42176L6.29227 7.79869L6.6677 8.17563L8.62198 6.22916L8.24656 5.85223ZM5.45296 7.79869L5.82839 7.42176L3.8741 5.47529L3.49868 5.85223L3.12325 6.22916L5.07753 8.17563L5.45296 7.79869ZM6.29227 7.79869L5.91685 7.42176C5.89266 7.44585 5.85257 7.44585 5.82839 7.42176L5.45296 7.79869L5.07753 8.17563C5.51689 8.61322 6.22834 8.61322 6.6677 8.17563L6.29227 7.79869ZM0.53125 8.21667H-0.000750005V8.33489H0.53125H1.06325V8.21667H0.53125ZM3.37998 11.1722V11.7042H8.36525V11.1722V10.6402H3.37998V11.1722ZM11.214 8.33489H11.746V8.21667H11.214H10.682V8.33489H11.214ZM8.36525 11.1722V11.7042C8.85509 11.7042 9.25433 11.7046 9.5778 11.6783C9.90743 11.6515 10.2049 11.5943 10.4826 11.4534L10.2418 10.9789L10.0011 10.5045C9.89796 10.5569 9.75567 10.5963 9.4915 10.6178C9.22119 10.6398 8.87257 10.6402 8.36525 10.6402V11.1722ZM11.214 8.33489H10.682C10.682 8.84029 10.6816 9.18721 10.6595 9.45612C10.638 9.71876 10.5985 9.8597 10.5463 9.96168L11.0199 10.204L11.4935 10.4463C11.6354 10.1689 11.693 9.87189 11.7199 9.54311C11.7464 9.22061 11.746 8.82266 11.746 8.33489H11.214ZM10.2418 10.9789L10.4826 11.4534C10.9175 11.2326 11.2716 10.8802 11.4935 10.4463L11.0199 10.204L10.5463 9.96168C10.4269 10.1951 10.2362 10.3852 10.0011 10.5045L10.2418 10.9789ZM0.53125 8.33489H-0.000750005C-0.000750005 8.82266 -0.00116706 9.22061 0.0252882 9.54311C0.0522581 9.87189 0.109799 10.1689 0.251685 10.4463L0.725308 10.204L1.19893 9.96168C1.14676 9.8597 1.10727 9.71876 1.08573 9.45612C1.06367 9.18721 1.06325 8.84029 1.06325 8.33489H0.53125ZM3.37998 11.1722V10.6402C2.87266 10.6402 2.52404 10.6398 2.25373 10.6178C1.98957 10.5963 1.84727 10.5569 1.74415 10.5045L1.5034 10.9789L1.26264 11.4534C1.54038 11.5943 1.8378 11.6515 2.16743 11.6783C2.49091 11.7046 2.89015 11.7042 3.37998 11.7042V11.1722ZM0.725308 10.204L0.251685 10.4463C0.47368 10.8802 0.827698 11.2326 1.26264 11.4534L1.5034 10.9789L1.74415 10.5045C1.50907 10.3852 1.31833 10.1951 1.19893 9.96168L0.725308 10.204Z" fill="white"/>
</svg>
