<svg width="13" height="13" viewBox="0 0 13 13" fill="none" xmlns="http://www.w3.org/2000/svg">
<path d="M4.80434 6.38423L5.87262 7.44823L8.00916 5.32023M2.13366 4.25623V8.51223M8.5433 2.12823L4.27021 2.12823M10.6798 4.25623V8.51223M8.5433 10.6402H4.27021M1.38587 3.72423H2.88145C3.1806 3.72423 3.33017 3.72423 3.44443 3.66624C3.54493 3.61524 3.62664 3.53385 3.67785 3.43375C3.73607 3.31995 3.73607 3.17097 3.73607 2.87303V1.38343C3.73607 1.08548 3.73607 0.936505 3.67785 0.822704C3.62664 0.722601 3.54493 0.641216 3.44443 0.590211C3.33017 0.532227 3.1806 0.532227 2.88145 0.532227H1.38587C1.08672 0.532227 0.937152 0.532227 0.822894 0.590211C0.722389 0.641216 0.640677 0.722601 0.589467 0.822704C0.53125 0.936505 0.53125 1.08548 0.53125 1.38343V2.87303C0.53125 3.17097 0.53125 3.31995 0.589467 3.43375C0.640677 3.53385 0.722389 3.61524 0.822894 3.66624C0.937152 3.72423 1.08672 3.72423 1.38587 3.72423ZM1.38587 12.2362H2.88145C3.1806 12.2362 3.33017 12.2362 3.44443 12.1782C3.54493 12.1272 3.62664 12.0459 3.67785 11.9457C3.73607 11.8319 3.73607 11.683 3.73607 11.385V9.89543C3.73607 9.59748 3.73607 9.4485 3.67785 9.3347C3.62664 9.2346 3.54493 9.15322 3.44443 9.10221C3.33017 9.04423 3.1806 9.04423 2.88145 9.04423H1.38587C1.08672 9.04423 0.937152 9.04423 0.822894 9.10221C0.722389 9.15322 0.640677 9.2346 0.589467 9.3347C0.53125 9.4485 0.53125 9.59748 0.53125 9.89543V11.385C0.53125 11.683 0.53125 11.8319 0.589467 11.9457C0.640677 12.0459 0.722389 12.1272 0.822894 12.1782C0.937152 12.2362 1.08672 12.2362 1.38587 12.2362ZM9.93206 3.72423H11.4276C11.7268 3.72423 11.8764 3.72423 11.9906 3.66624C12.0911 3.61524 12.1728 3.53385 12.224 3.43375C12.2823 3.31995 12.2823 3.17097 12.2823 2.87303V1.38343C12.2823 1.08548 12.2823 0.936505 12.224 0.822704C12.1728 0.722601 12.0911 0.641216 11.9906 0.590211C11.8764 0.532227 11.7268 0.532227 11.4276 0.532227H9.93206C9.63291 0.532227 9.48334 0.532227 9.36908 0.590211C9.26858 0.641216 9.18686 0.722601 9.13565 0.822704C9.07744 0.936505 9.07744 1.08548 9.07744 1.38343V2.87303C9.07744 3.17097 9.07744 3.31995 9.13565 3.43375C9.18686 3.53385 9.26858 3.61524 9.36908 3.66624C9.48334 3.72423 9.63291 3.72423 9.93206 3.72423ZM9.93206 12.2362H11.4276C11.7268 12.2362 11.8764 12.2362 11.9906 12.1782C12.0911 12.1272 12.1728 12.0459 12.224 11.9457C12.2823 11.8319 12.2823 11.683 12.2823 11.385V9.89543C12.2823 9.59748 12.2823 9.4485 12.224 9.3347C12.1728 9.2346 12.0911 9.15322 11.9906 9.10221C11.8764 9.04423 11.7268 9.04423 11.4276 9.04423H9.93206C9.63291 9.04423 9.48334 9.04423 9.36908 9.10221C9.26858 9.15322 9.18686 9.2346 9.13565 9.3347C9.07744 9.4485 9.07744 9.59748 9.07744 9.89543V11.385C9.07744 11.683 9.07744 11.8319 9.13565 11.9457C9.18686 12.0459 9.26858 12.1272 9.36908 12.1782C9.48334 12.2362 9.63291 12.2362 9.93206 12.2362Z" stroke="black" stroke-width="1.064" stroke-linecap="round"/>
</svg>
