<svg width="19" height="19" viewBox="0 0 19 19" fill="none" xmlns="http://www.w3.org/2000/svg">
<path d="M9.58771 3.33692C9.14699 3.33692 8.78971 3.6942 8.78971 4.13492C8.78971 4.57564 9.14699 4.93292 9.58771 4.93292V4.13492V3.33692ZM9.87906 4.93292C10.3198 4.93292 10.6771 4.57564 10.6771 4.13492C10.6771 3.6942 10.3198 3.33692 9.87906 3.33692V4.13492V4.93292ZM9.58771 3.6271C9.14699 3.6271 8.78971 3.98438 8.78971 4.4251C8.78971 4.86582 9.14699 5.2231 9.58771 5.2231V4.4251V3.6271ZM9.87906 5.2231C10.3198 5.2231 10.6771 4.86582 10.6771 4.4251C10.6771 3.98438 10.3198 3.6271 9.87906 3.6271V4.4251V5.2231ZM4.14923 8.75365C3.7085 8.75365 3.35123 9.11092 3.35123 9.55165C3.35123 9.99237 3.7085 10.3496 4.14923 10.3496V9.55165V8.75365ZM4.44057 10.3496C4.8813 10.3496 5.23857 9.99237 5.23857 9.55165C5.23857 9.11092 4.8813 8.75365 4.44057 8.75365V9.55165V10.3496ZM4.14923 9.04383C3.7085 9.04383 3.35123 9.4011 3.35123 9.84183C3.35123 10.2826 3.7085 10.6398 4.14923 10.6398V9.84183V9.04383ZM4.44057 10.6398C4.8813 10.6398 5.23857 10.2826 5.23857 9.84183C5.23857 9.4011 4.8813 9.04383 4.44057 9.04383V9.84183V10.6398ZM6.48001 11.8489C6.03928 11.8489 5.68201 12.2062 5.68201 12.6469C5.68201 13.0876 6.03928 13.4449 6.48001 13.4449V12.6469V11.8489ZM6.77135 13.4449C7.21208 13.4449 7.56935 13.0876 7.56935 12.6469C7.56935 12.2062 7.21208 11.8489 6.77135 11.8489V12.6469V13.4449ZM6.48001 12.1391C6.03928 12.1391 5.68201 12.4964 5.68201 12.9371C5.68201 13.3778 6.03928 13.7351 6.48001 13.7351V12.9371V12.1391ZM6.77135 13.7351C7.21208 13.7351 7.56935 13.3778 7.56935 12.9371C7.56935 12.4964 7.21208 12.1391 6.77135 12.1391V12.9371V13.7351ZM12.6954 5.65837C12.2547 5.65837 11.8974 6.01565 11.8974 6.45637C11.8974 6.8971 12.2547 7.25437 12.6954 7.25437V6.45637V5.65837ZM12.9868 7.25437C13.4275 7.25437 13.7848 6.8971 13.7848 6.45637C13.7848 6.01565 13.4275 5.65837 12.9868 5.65837V6.45637V7.25437ZM12.6954 5.94856C12.2547 5.94856 11.8974 6.30583 11.8974 6.74656C11.8974 7.18728 12.2547 7.54456 12.6954 7.54456V6.74656V5.94856ZM12.9868 7.54456C13.4275 7.54456 13.7848 7.18728 13.7848 6.74656C13.7848 6.30583 13.4275 5.94856 12.9868 5.94856V6.74656V7.54456ZM5.70308 4.88456C5.26236 4.88456 4.90508 5.24183 4.90508 5.68256C4.90508 6.12328 5.26236 6.48056 5.70308 6.48056V5.68256V4.88456ZM5.99443 6.48056C6.43515 6.48056 6.79243 6.12328 6.79243 5.68256C6.79243 5.24183 6.43515 4.88456 5.99443 4.88456V5.68256V6.48056ZM5.70308 5.17474C5.26236 5.17474 4.90508 5.53201 4.90508 5.97274C4.90508 6.41346 5.26236 6.77074 5.70308 6.77074V5.97274V5.17474ZM5.99443 6.77074C6.43515 6.77074 6.79243 6.41346 6.79243 5.97274C6.79243 5.53201 6.43515 5.17474 5.99443 5.17474V5.97274V6.77074ZM15.4342 11.0139L15.6703 10.2516V10.2516L15.4342 11.0139ZM17.8542 10.107L18.6488 10.181V10.181L17.8542 10.107ZM10.1453 17.785L10.2188 18.5796H10.2188L10.1453 17.785ZM11.0559 15.3747L10.2941 15.6125V15.6125L11.0559 15.3747ZM11.1905 17.5802L10.7239 16.9328V16.9328L11.1905 17.5802ZM11.4911 17.1316L12.2674 17.3161L12.2674 17.3161L11.4911 17.1316ZM17.1982 11.4473L17.015 10.6706L17.015 10.6706L17.1982 11.4473ZM17.6486 11.148L17.003 10.6789L17.003 10.6789L17.6486 11.148ZM10.1219 4.28003H9.32394C9.32394 4.04998 9.51031 3.86894 9.73348 3.86894V4.66694V5.46494C10.3857 5.46494 10.9199 4.93745 10.9199 4.28003H10.1219ZM9.73348 4.66694V3.86894C9.95664 3.86894 10.143 4.04998 10.143 4.28003H9.34501H8.54701C8.54701 4.93746 9.08123 5.46494 9.73348 5.46494V4.66694ZM9.34501 4.28003H10.143C10.143 4.51009 9.95664 4.69112 9.73348 4.69112V3.89312V3.09512C9.08123 3.09512 8.54701 3.62261 8.54701 4.28003H9.34501ZM9.73348 3.89312V4.69112C9.51031 4.69112 9.32394 4.51008 9.32394 4.28003H10.1219H10.9199C10.9199 3.62262 10.3857 3.09512 9.73348 3.09512V3.89312ZM9.58771 4.13492V4.93292H9.87906V4.13492V3.33692H9.58771V4.13492ZM9.58771 4.4251V5.2231H9.87906V4.4251V3.6271H9.58771V4.4251ZM4.68346 9.69676H3.88546C3.88546 9.46671 4.07183 9.28567 4.295 9.28567V10.0837V10.8817C4.94724 10.8817 5.48146 10.3542 5.48146 9.69676H4.68346ZM4.295 10.0837V9.28567C4.51816 9.28567 4.70453 9.46671 4.70453 9.69676H3.90653H3.10853C3.10853 10.3542 3.64275 10.8817 4.295 10.8817V10.0837ZM3.90653 9.69676H4.70453C4.70453 9.92681 4.51816 10.1079 4.295 10.1079V9.30985V8.51185C3.64275 8.51185 3.10853 9.03934 3.10853 9.69676H3.90653ZM4.295 9.30985V10.1079C4.07183 10.1079 3.88546 9.92681 3.88546 9.69676H4.68346H5.48146C5.48146 9.03934 4.94724 8.51185 4.295 8.51185V9.30985ZM4.14923 9.55165V10.3496H4.44057V9.55165V8.75365H4.14923V9.55165ZM4.14923 9.84183V10.6398H4.44057V9.84183V9.04383H4.14923V9.84183ZM7.01424 12.792H6.21624C6.21624 12.562 6.40261 12.3809 6.62577 12.3809V13.1789V13.9769C7.27802 13.9769 7.81224 13.4495 7.81224 12.792H7.01424ZM6.62577 13.1789V12.3809C6.84893 12.3809 7.03531 12.562 7.03531 12.792H6.23731H5.43931C5.43931 13.4495 5.97353 13.9769 6.62577 13.9769V13.1789ZM6.23731 12.792H7.03531C7.03531 13.0221 6.84894 13.2031 6.62577 13.2031V12.4051V11.6071C5.97353 11.6071 5.43931 12.1346 5.43931 12.792H6.23731ZM6.62577 12.4051V13.2031C6.40261 13.2031 6.21624 13.0221 6.21624 12.792H7.01424H7.81224C7.81224 12.1346 7.27802 11.6071 6.62577 11.6071V12.4051ZM6.48001 12.6469V13.4449H6.77135V12.6469V11.8489H6.48001V12.6469ZM6.48001 12.9371V13.7351H6.77135V12.9371V12.1391H6.48001V12.9371ZM13.2296 6.60149H12.4316C12.4316 6.37144 12.618 6.1904 12.8412 6.1904V6.9884V7.7864C13.4934 7.7864 14.0276 7.25891 14.0276 6.60149H13.2296ZM12.8412 6.9884V6.1904C13.0643 6.1904 13.2507 6.37143 13.2507 6.60149H12.4527H11.6547C11.6547 7.25891 12.1889 7.7864 12.8412 7.7864V6.9884ZM12.4527 6.60149H13.2507C13.2507 6.83154 13.0643 7.01258 12.8412 7.01258V6.21458V5.41658C12.1889 5.41658 11.6547 5.94407 11.6547 6.60149H12.4527ZM12.8412 6.21458V7.01258C12.618 7.01258 12.4316 6.83154 12.4316 6.60149H13.2296H14.0276C14.0276 5.94407 13.4934 5.41658 12.8412 5.41658V6.21458ZM12.6954 6.45637V7.25437H12.9868V6.45637V5.65837H12.6954V6.45637ZM12.6954 6.74656V7.54456H12.9868V6.74656V5.94856H12.6954V6.74656ZM6.23731 5.82767H5.43931C5.43931 5.59762 5.62569 5.41658 5.84885 5.41658V6.21458V7.01258C6.50109 7.01258 7.03531 6.48509 7.03531 5.82767H6.23731ZM5.84885 6.21458V5.41658C6.07201 5.41658 6.25838 5.59762 6.25838 5.82767H5.46038H4.66238C4.66238 6.48509 5.1966 7.01258 5.84885 7.01258V6.21458ZM5.46038 5.82767H6.25838C6.25838 6.05772 6.07201 6.23876 5.84885 6.23876V5.44076V4.64276C5.1966 4.64276 4.66238 5.17025 4.66238 5.82767H5.46038ZM5.84885 5.44076V6.23876C5.62568 6.23876 5.43931 6.05772 5.43931 5.82767H6.23731H7.03531C7.03531 5.17025 6.5011 4.64276 5.84885 4.64276V5.44076ZM5.70308 5.68256V6.48056H5.99443V5.68256V4.88456H5.70308V5.68256ZM5.70308 5.97274V6.77074H5.99443V5.97274V5.17474H5.70308V5.97274ZM9.34501 17.8219V17.0239C5.06279 17.0239 1.59683 13.5672 1.59683 9.30985H0.798828H0.000828147C0.000828147 14.4546 4.18738 18.6199 9.34501 18.6199V17.8219ZM0.798828 9.30985H1.59683C1.59683 5.05254 5.06279 1.59585 9.34501 1.59585V0.797852V-0.000148416C4.18738 -0.000148416 0.000828147 4.16507 0.000828147 9.30985H0.798828ZM9.34501 0.797852V1.59585C13.6272 1.59585 17.0932 5.05254 17.0932 9.30985H17.8912H18.6892C18.6892 4.16507 14.5026 -0.000148416 9.34501 -0.000148416V0.797852ZM10.8989 14.3397H11.6969C11.6969 12.8603 12.9019 11.6555 14.395 11.6555V10.8575V10.0595C12.0265 10.0595 10.1009 11.9728 10.1009 14.3397H10.8989ZM14.395 10.8575V11.6555C14.676 11.6555 14.9455 11.6979 15.1982 11.7762L15.4342 11.0139L15.6703 10.2516C15.2664 10.1265 14.8378 10.0595 14.395 10.0595V10.8575ZM17.8912 9.30985H17.0932C17.0932 9.55388 17.0818 9.79504 17.0597 10.0329L17.8542 10.107L18.6488 10.181C18.6755 9.89402 18.6892 9.60342 18.6892 9.30985H17.8912ZM10.1453 17.785L10.0718 16.9904C9.83274 17.0125 9.59032 17.0239 9.34501 17.0239V17.8219V18.6199C9.63946 18.6199 9.93094 18.6063 10.2188 18.5796L10.1453 17.785ZM11.0559 15.3747L11.8177 15.1369C11.7393 14.886 11.6969 14.6185 11.6969 14.3397H10.8989H10.1009C10.1009 14.7817 10.1683 15.2094 10.2941 15.6125L11.0559 15.3747ZM10.1453 17.785L10.2188 18.5796C10.4964 18.5539 10.7523 18.5309 10.958 18.4952C11.1614 18.4599 11.4222 18.397 11.6572 18.2275L11.1905 17.5802L10.7239 16.9328C10.7868 16.8875 10.816 16.9 10.6853 16.9227C10.557 16.9449 10.3763 16.9623 10.0718 16.9904L10.1453 17.785ZM11.0559 15.3747L10.2941 15.6125C10.4581 16.1376 10.5722 16.5041 10.641 16.7662C10.6752 16.8967 10.6921 16.9788 10.699 17.0278C10.7081 17.0916 10.6919 17.0431 10.7147 16.9471L11.4911 17.1316L12.2674 17.3161C12.3147 17.1171 12.2967 16.9268 12.2792 16.8034C12.2596 16.6652 12.2251 16.5149 12.1847 16.3612C12.1044 16.0548 11.9765 15.6457 11.8177 15.1369L11.0559 15.3747ZM11.1905 17.5802L11.6572 18.2275C11.7823 18.1373 11.9317 18.0153 12.0537 17.8332C12.1758 17.6509 12.2317 17.4663 12.2674 17.3161L11.4911 17.1316L10.7147 16.9471C10.7106 16.9642 10.7075 16.9757 10.7053 16.9832C10.7031 16.9905 10.7022 16.9926 10.7029 16.9908C10.7037 16.9888 10.7061 16.9828 10.7104 16.9743C10.7149 16.9655 10.7206 16.9555 10.7277 16.9449C10.7348 16.9344 10.7419 16.9253 10.7482 16.9179C10.7544 16.9106 10.7589 16.9062 10.7604 16.9049C10.7617 16.9036 10.7601 16.9053 10.754 16.9102C10.7479 16.9151 10.7383 16.9225 10.7239 16.9328L11.1905 17.5802ZM15.4342 11.0139L15.1982 11.7762C15.7091 11.9344 16.1196 12.0617 16.427 12.1417C16.5812 12.1818 16.7318 12.2161 16.87 12.2356C16.9935 12.253 17.1832 12.2707 17.3813 12.224L17.1982 11.4473L17.015 10.6706C17.1098 10.6483 17.157 10.6642 17.0926 10.6552C17.0429 10.6482 16.9601 10.6313 16.8289 10.5972C16.5656 10.5286 16.1975 10.4148 15.6703 10.2516L15.4342 11.0139ZM17.8542 10.107L17.0597 10.0329C17.0314 10.3362 17.014 10.5158 16.9918 10.6432C16.9691 10.7727 16.9569 10.7424 17.003 10.6789L17.6486 11.148L18.2941 11.6171C18.4649 11.3822 18.5284 11.1212 18.5639 10.918C18.5998 10.7126 18.623 10.4574 18.6488 10.181L17.8542 10.107ZM17.1982 11.4473L17.3813 12.224C17.5315 12.1886 17.7161 12.1331 17.8983 12.012C18.0808 11.8907 18.2034 11.742 18.2941 11.6171L17.6486 11.148L17.003 10.6789C16.9926 10.6932 16.9853 10.7027 16.9803 10.7088C16.9754 10.7148 16.9738 10.7164 16.975 10.7151C16.9765 10.7136 16.9808 10.7091 16.9881 10.703C16.9955 10.6967 17.0045 10.6897 17.015 10.6827C17.0255 10.6758 17.0354 10.6701 17.044 10.6658C17.0524 10.6616 17.0581 10.6593 17.0599 10.6586C17.0615 10.658 17.0593 10.6589 17.0517 10.6611C17.0441 10.6634 17.0323 10.6665 17.015 10.6706L17.1982 11.4473Z" fill="#605F60"/>
</svg>
