<svg width="17" height="11" viewBox="0 0 17 11" fill="none" xmlns="http://www.w3.org/2000/svg">
<path d="M6.46869 4.70919C6.46869 4.70919 7.98489 4.59186 7.98489 2.7465C7.98489 0.898737 6.74436 0 5.17207 0H0V10.3171H5.17207C5.17207 10.3171 8.33028 10.4201 8.33028 7.27131C8.33028 7.27131 8.46732 4.70919 6.46869 4.70919ZM2.27911 1.83259H5.17207C5.17207 1.83259 5.87567 1.83259 5.87567 2.90533C5.87567 3.97967 5.46216 4.13531 4.99256 4.13531H2.27911V1.83259ZM5.02542 8.48293H2.27911V5.72526H5.17207C5.17207 5.72526 6.22026 5.71089 6.22026 7.14201C6.22026 8.34884 5.43732 8.47415 5.02542 8.48293ZM12.5407 2.62358C8.71735 2.62358 8.72055 6.58808 8.72055 6.58808C8.72055 6.58808 8.4593 10.5318 12.5407 10.5318C12.5407 10.5318 15.9409 10.7346 15.9409 7.78853H14.1923C14.1923 7.78853 14.25 8.89878 12.5992 8.89878C12.5992 8.89878 10.849 9.0201 10.849 7.1029H15.9962C15.9962 7.1029 16.5644 2.62358 12.5407 2.62358ZM14.0962 5.72526H10.8314C10.8314 5.72526 11.0445 4.13531 12.58 4.13531C14.1154 4.13531 14.0962 5.72526 14.0962 5.72526ZM14.5025 0.60581H10.4018V1.87809H14.5025V0.60581Z" fill="black"/>
</svg>
