<svg width="13" height="13" viewBox="0 0 13 13" fill="none" xmlns="http://www.w3.org/2000/svg">
<path d="M0.585938 1.52128C0.585938 1.19354 0.585938 1.02967 0.649977 0.904486C0.706307 0.794373 0.796191 0.704849 0.906746 0.648744C1.03243 0.584961 1.19696 0.584961 1.52602 0.584961H4.34626C4.67532 0.584961 4.83985 0.584961 4.96553 0.648744C5.07609 0.704849 5.16597 0.794373 5.2223 0.904486C5.28634 1.02967 5.28634 1.19354 5.28634 1.52128V4.33024C5.28634 4.65798 5.28634 4.82186 5.2223 4.94704C5.16597 5.05715 5.07609 5.14667 4.96553 5.20278C4.83985 5.26656 4.67532 5.26656 4.34626 5.26656H1.52602C1.19696 5.26656 1.03243 5.26656 0.906746 5.20278C0.796191 5.14667 0.706307 5.05715 0.649977 4.94704C0.585938 4.82186 0.585938 4.65798 0.585938 4.33024V1.52128Z" stroke="black" stroke-width="1.1704"/>
<path d="M0.585938 8.54368C0.585938 8.21594 0.585938 8.05207 0.649977 7.92689C0.706307 7.81677 0.796191 7.72725 0.906746 7.67114C1.03243 7.60736 1.19696 7.60736 1.52602 7.60736H4.34626C4.67532 7.60736 4.83985 7.60736 4.96553 7.67114C5.07609 7.72725 5.16597 7.81677 5.2223 7.92689C5.28634 8.05207 5.28634 8.21594 5.28634 8.54368V11.3526C5.28634 11.6804 5.28634 11.8443 5.2223 11.9694C5.16597 12.0795 5.07609 12.1691 4.96553 12.2252C4.83985 12.289 4.67532 12.289 4.34626 12.289H1.52602C1.19696 12.289 1.03243 12.289 0.906746 12.2252C0.796191 12.1691 0.706307 12.0795 0.649977 11.9694C0.585938 11.8443 0.585938 11.6804 0.585938 11.3526V8.54368Z" stroke="black" stroke-width="1.1704"/>
<path d="M7.63654 1.52128C7.63654 1.19354 7.63654 1.02967 7.70058 0.904486C7.75691 0.794373 7.84679 0.704849 7.95735 0.648744C8.08303 0.584961 8.24756 0.584961 8.57662 0.584961H11.3969C11.7259 0.584961 11.8905 0.584961 12.0161 0.648744C12.1267 0.704849 12.2166 0.794373 12.2729 0.904486C12.3369 1.02967 12.3369 1.19354 12.3369 1.52128V4.33024C12.3369 4.65798 12.3369 4.82186 12.2729 4.94704C12.2166 5.05715 12.1267 5.14667 12.0161 5.20278C11.8905 5.26656 11.7259 5.26656 11.3969 5.26656H8.57662C8.24756 5.26656 8.08303 5.26656 7.95735 5.20278C7.84679 5.14667 7.75691 5.05715 7.70058 4.94704C7.63654 4.82186 7.63654 4.65798 7.63654 4.33024V1.52128Z" stroke="black" stroke-width="1.1704"/>
<path d="M7.63654 8.54368C7.63654 8.21594 7.63654 8.05207 7.70058 7.92689C7.75691 7.81677 7.84679 7.72725 7.95735 7.67114C8.08303 7.60736 8.24756 7.60736 8.57662 7.60736H11.3969C11.7259 7.60736 11.8905 7.60736 12.0161 7.67114C12.1267 7.72725 12.2166 7.81677 12.2729 7.92689C12.3369 8.05207 12.3369 8.21594 12.3369 8.54368V11.3526C12.3369 11.6804 12.3369 11.8443 12.2729 11.9694C12.2166 12.0795 12.1267 12.1691 12.0161 12.2252C11.8905 12.289 11.7259 12.289 11.3969 12.289H8.57662C8.24756 12.289 8.08303 12.289 7.95735 12.2252C7.84679 12.1691 7.75691 12.0795 7.70058 11.9694C7.63654 11.8443 7.63654 11.6804 7.63654 11.3526V8.54368Z" stroke="black" stroke-width="1.1704"/>
</svg>
