<svg width="109" height="29" viewBox="0 0 109 29" fill="none" xmlns="http://www.w3.org/2000/svg">
<path d="M9.54785 14.4999C9.54785 13.187 10.0091 12.0682 10.9336 11.1436C11.8582 10.219 12.977 9.75781 14.29 9.75781C15.6029 9.75781 16.7217 10.2212 17.6463 11.1436C18.5709 12.0682 19.0343 13.187 19.0343 14.4999C19.0343 15.8129 18.5709 16.9317 17.6463 17.8563C16.7217 18.7809 15.6029 19.2443 14.29 19.2443C13.2661 19.2443 12.3635 18.9662 11.5802 18.4079V21.9541H9.54785V14.4999ZM16.2076 16.4153C16.7372 15.8857 17.002 15.248 17.002 14.4999C17.002 13.7519 16.7372 13.1119 16.2076 12.5845C15.678 12.055 15.038 11.7901 14.2922 11.7901C13.5441 11.7901 12.9042 12.055 12.3768 12.5845C11.8472 13.1141 11.5824 13.7519 11.5824 14.4999C11.5824 15.248 11.8472 15.8879 12.3768 16.4153C12.9064 16.9449 13.5441 17.2097 14.2922 17.2097C15.038 17.2097 15.678 16.9449 16.2076 16.4153Z" fill="white"/>
<path d="M21.7065 9.08043C21.424 9.08043 21.1835 8.98112 20.9871 8.78473C20.7885 8.58613 20.6914 8.34782 20.6914 8.06537C20.6914 7.78291 20.7907 7.54239 20.9871 7.34599C21.1835 7.1496 21.424 7.05029 21.7065 7.05029C21.9889 7.05029 22.2294 7.1496 22.4258 7.34599C22.6222 7.54239 22.7215 7.78291 22.7215 8.06537C22.7215 8.34782 22.6222 8.58834 22.4258 8.78473C22.2294 8.98112 21.9889 9.08043 21.7065 9.08043ZM22.7237 9.75788V19.2421H20.6914V9.75788H22.7237Z" fill="white"/>
<path d="M27.7082 14.4999L24.1621 9.75781H26.5652L28.9042 12.8913L31.2433 9.75781H33.6464L30.1113 14.4999L33.6464 19.2421H31.2433L28.9042 16.1086L26.5652 19.2421H24.1621L27.7082 14.4999Z" fill="white"/>
<path d="M38.9338 19.2421C37.6208 19.2421 36.502 18.7809 35.5775 17.8541C34.6529 16.9295 34.1895 15.8107 34.1895 14.4977C34.1895 13.1848 34.6529 12.066 35.5775 11.1414C36.502 10.2168 37.6208 9.75562 38.9338 9.75562C40.2467 9.75562 41.3655 10.219 42.2901 11.1414C43.2147 12.066 43.6759 13.1848 43.6759 14.4977C43.6759 15.8107 43.2147 16.9295 42.2901 17.8541C41.3633 18.7809 40.2445 19.2421 38.9338 19.2421ZM40.8492 16.4153C41.3788 15.8857 41.6436 15.248 41.6436 14.4999C41.6436 13.7519 41.3788 13.112 40.8492 12.5846C40.3196 12.055 39.6818 11.7902 38.9338 11.7902C38.1857 11.7902 37.548 12.055 37.0184 12.5846C36.4888 13.1142 36.224 13.7519 36.224 14.4999C36.224 15.248 36.4888 15.8879 37.0184 16.4153C37.548 16.9449 38.1857 17.2097 38.9338 17.2097C39.6818 17.2097 40.3196 16.9449 40.8492 16.4153Z" fill="white"/>
<path d="M45.2715 14.4999C45.2715 13.187 45.7349 12.0682 46.6595 11.1436C47.5841 10.219 48.7028 9.75781 50.0158 9.75781C51.3288 9.75781 52.4475 10.2212 53.3721 11.1436C54.2967 12.0682 54.7579 13.187 54.7579 14.4999C54.7579 15.8129 54.2967 16.9317 53.3721 17.8563C52.4475 18.7809 51.3288 19.2443 50.0158 19.2443C48.9919 19.2443 48.0894 18.9662 47.306 18.4079V21.9541H45.2737V14.4999H45.2715ZM51.929 16.4153C52.4586 15.8857 52.7234 15.248 52.7234 14.4999C52.7234 13.7519 52.4586 13.1119 51.929 12.5845C51.3994 12.055 50.7617 11.7901 50.0136 11.7901C49.2655 11.7901 48.6278 12.055 48.0982 12.5845C47.5686 13.1141 47.3038 13.7519 47.3038 14.4999C47.3038 15.248 47.5686 15.8879 48.0982 16.4153C48.6278 16.9449 49.2655 17.2097 50.0136 17.2097C50.7617 17.2097 51.4016 16.9449 51.929 16.4153Z" fill="white"/>
<path d="M58.4298 14.4999V19.242H56.3975V7.04578H58.4298V10.5919C59.2132 10.0336 60.1157 9.75557 61.1396 9.75557C62.4525 9.75557 63.5713 10.219 64.4959 11.1414C65.4205 12.066 65.8817 13.1847 65.8817 14.4977V19.2398H63.8494V14.4999C63.8494 13.7518 63.5846 13.1119 63.055 12.5845C62.5254 12.0549 61.8876 11.7901 61.1396 11.7901C60.3915 11.7901 59.7538 12.0549 59.2242 12.5845C58.6946 13.1119 58.4298 13.7518 58.4298 14.4999Z" fill="white"/>
<path d="M72.2209 19.2421C70.9079 19.2421 69.7891 18.7809 68.8645 17.8541C67.9399 16.9295 67.4766 15.8107 67.4766 14.4977C67.4766 13.1848 67.9399 12.066 68.8645 11.1414C69.7891 10.2168 70.9079 9.75562 72.2209 9.75562C73.5339 9.75562 74.6526 10.219 75.5772 11.1414C76.5018 12.066 76.963 13.1848 76.963 14.4977C76.963 15.8107 76.5018 16.9295 75.5772 17.8541C74.6526 18.7809 73.5339 19.2421 72.2209 19.2421ZM74.1363 16.4153C74.6659 15.8857 74.9307 15.248 74.9307 14.4999C74.9307 13.7519 74.6659 13.112 74.1363 12.5846C73.6067 12.055 72.969 11.7902 72.2209 11.7902C71.4728 11.7902 70.8351 12.055 70.3055 12.5846C69.7759 13.1142 69.5111 13.7519 69.5111 14.4999C69.5111 15.248 69.7759 15.8879 70.3055 16.4153C70.8351 16.9449 71.4728 17.2097 72.2209 17.2097C72.969 17.2097 73.6067 16.9449 74.1363 16.4153Z" fill="white"/>
<path d="M80.5909 19.2421H78.5586V14.4999C78.5586 13.187 79.0198 12.0682 79.9444 11.1436C80.869 10.219 81.9877 9.75781 83.3007 9.75781C84.6137 9.75781 85.7325 10.2212 86.657 11.1436C87.5816 12.0682 88.045 13.187 88.045 14.4999V19.2421H86.0127V14.4999C86.0127 13.7519 85.7479 13.1119 85.2183 12.5845C84.6887 12.055 84.0488 11.7901 83.3029 11.7901C82.5549 11.7901 81.9149 12.055 81.3875 12.5845C80.8579 13.1141 80.5931 13.7519 80.5931 14.4999V19.2421H80.5909Z" fill="white"/>
<path d="M92.4654 16.4153C92.995 16.9449 93.6327 17.2097 94.3808 17.2097C95.1289 17.2097 95.7666 16.9449 96.2962 16.4153L96.3072 16.4043L97.7482 17.8452L97.7371 17.8563C96.8126 18.7809 95.6938 19.2443 94.3808 19.2443C93.0678 19.2443 91.9491 18.7831 91.0245 17.8563C90.0999 16.9317 89.6387 15.8129 89.6387 14.4999C89.6387 13.187 90.0999 12.0682 91.0245 11.1436C91.9491 10.219 93.0678 9.75781 94.3808 9.75781C95.6938 9.75781 96.8126 10.2212 97.7371 11.1436C98.6617 12.0682 99.1251 13.187 99.1251 14.4999C99.1251 14.725 99.1031 14.9523 99.0611 15.1774H98.4477H91.7571C91.8696 15.643 92.1057 16.0556 92.4654 16.4153ZM96.2984 12.5845C95.7688 12.055 95.1289 11.7901 94.383 11.7901C93.6349 11.7901 92.995 12.055 92.4676 12.5845C92.2911 12.7611 92.1454 12.9486 92.0329 13.145H96.7331C96.6184 12.9464 96.4749 12.7611 96.2984 12.5845Z" fill="white"/>
<path d="M94.176 29H14.5C6.50524 29 0 22.4947 0 14.5C0 6.50525 6.50524 0 14.5 0H94.176C102.171 0 108.676 6.50525 108.676 14.5C108.676 22.4947 102.171 29 94.176 29ZM14.4978 1.66163C7.4188 1.66163 1.65942 7.42102 1.65942 14.5C1.65942 21.579 7.4188 27.3384 14.4978 27.3384H94.1738C101.253 27.3384 107.012 21.579 107.012 14.5C107.012 7.42102 101.253 1.66163 94.1738 1.66163H14.4978Z" fill="white"/>
</svg>
