<svg width="61" height="55" viewBox="0 0 61 55" fill="none" xmlns="http://www.w3.org/2000/svg">
<path d="M60.5 30.7998C60.5 42.2078 60.5001 47.912 56.9561 51.4561C53.412 55.0001 47.7078 55 36.2998 55H24.2002C12.7922 55 7.08795 55.0001 3.54395 51.4561C-6.24675e-05 47.912 0 42.2078 0 30.7998V24.2002C0 12.7922 -6.24675e-05 7.08795 3.54395 3.54395C7.08795 -6.24675e-05 12.7922 0 24.2002 0H36.2998C47.7078 0 53.412 -6.24675e-05 56.9561 3.54395C60.5001 7.08795 60.5 12.7922 60.5 24.2002V30.7998ZM51.1494 25.4854C51.1493 23.9978 50.4688 20.2016 47.748 16.918C45.0272 13.6345 41.6018 12.3376 40.2295 12.0996V22.3145L40.2187 22.5684C40.1091 23.8227 39.1935 24.8818 37.917 24.8818C37.1266 24.8817 36.3731 24.4746 35.8789 23.8672L28.0771 12.0996H10.1123L20.7441 28.4131L20.7324 28.4248C21.0353 28.9611 21.2089 29.5805 21.209 30.2402C21.209 32.278 19.7206 33.9237 17.6855 33.9316V33.9395H10.2881V43.4502H19.7988V37.2832C20.1521 35.0832 21.4405 34.292 23.0176 34.292C23.9194 34.292 24.786 34.8115 25.4092 35.5703L30.543 43.4492H48.8594L39.9727 30.043L39.9922 30.0264C39.6981 29.5689 39.5254 29.0325 39.5254 28.457C39.5258 26.9623 40.6697 25.7237 42.1699 25.4854H51.1494Z" fill="white"/>
</svg>
