<svg width="121" height="44" viewBox="0 0 121 44" fill="none" xmlns="http://www.w3.org/2000/svg">
<path d="M120.265 15.9377C120.864 16.7533 120.157 17.2426 119.395 17.9494C118.634 18.6563 115.915 21.1029 113.305 21.9729C110.696 22.8428 109.282 23.1149 107.977 22.5168C106.672 21.9187 106.346 20.777 106.346 20.342V18.7649C103.863 20.7766 98.1681 24.3004 95.2537 23.3869C92.3399 22.4735 92.4088 20.2154 92.8074 19.2004C91.0131 20.6141 86.9568 22.7131 84.8689 23.2785C82.2591 23.9853 79.2139 23.8762 77.7459 23.55C76.5716 23.2888 75.2631 21.9914 74.7557 21.3752C73.4144 21.774 70.3625 22.6479 68.8836 22.9524C67.4046 23.2568 64.6785 23.3141 63.1199 23.3322C62.3404 23.6947 59.6617 24.4198 58.2264 24.2024C56.7914 23.9848 55.6716 22.916 55.2908 22.4084L40.8279 42.4172C40.3205 43.2146 38.8705 44.5916 37.1307 43.7219C35.3908 42.8519 36.297 40.5319 36.9676 39.4807L52.5174 17.2424C51.6837 17.623 49.6355 18.5154 48.1131 19.0373C46.5908 19.5592 45.1591 19.7984 44.6336 19.8528C44.1804 20.4509 42.7852 21.9085 40.8279 22.9524C38.3813 24.2572 35.3905 24.6376 32.8895 23.6047C30.8888 22.7784 30.606 20.9044 30.7146 20.0705C28.9566 21.0855 25.1683 23.2132 24.0809 23.6047C22.7215 24.094 20.5465 24.6914 19.3504 23.8215C18.1546 22.9515 18.4259 21.3207 18.8064 20.1789C19.1109 19.2655 20.1301 17.1161 20.6014 16.1555C19.4777 16.5905 16.7302 17.8085 14.7293 19.2004C12.7284 20.5923 9.79908 23.1149 8.58476 24.2024C7.98667 24.8005 6.49651 25.7356 5.32207 24.6916C3.85457 23.3868 5.21426 22.1361 5.8123 21.1574C6.41085 20.1783 9.45518 16.3723 9.83574 15.7199C10.2163 15.0676 10.7595 14.2525 10.4334 13.9807C10.1072 13.7088 7.76925 14.4152 6.73613 15.0676C5.90972 15.5895 3.92702 16.8436 3.03887 17.4055C2.65827 17.7498 1.60389 18.2318 0.429491 17.4055C-1.03856 16.3724 1.67971 14.47 2.22344 14.1438C2.76716 13.8175 6.24733 11.4792 9.02031 10.718C11.793 9.95696 13.3158 10.3377 14.24 11.2619C15.1639 12.1863 14.6746 13.9802 14.3484 14.9045C14.0874 15.644 13.9857 15.938 13.9676 15.9924C15.5262 14.9231 19.1872 12.6317 21.3621 12.0227C24.0807 11.2615 24.7331 12.1866 25.2225 12.8391C25.7116 13.4917 25.3313 15.3399 24.7332 16.6447C24.1351 17.9496 23.7001 18.6023 23.3738 19.2004C23.0478 19.7983 23.1568 20.2335 23.7547 20.0705C24.3528 19.9074 26.4188 19.0912 27.7781 18.2756C29.1374 17.46 30.9323 16.4817 31.7479 16.1555C32.3996 15.8948 32.9246 15.7929 33.1062 15.7746C33.5594 14.5422 35.4668 11.8818 39.4686 11.0989C44.4706 10.1203 46.4282 13.1649 46.5369 14.9592C46.6199 16.3284 46.4454 16.7182 46.3348 16.7512C47.0904 16.6377 49.1181 16.1254 51.3211 14.9592C54.0941 13.4912 54.6928 13.4369 56.6502 11.0989C58.6075 8.76091 58.9337 7.78198 60.6736 8.54319C62.0653 9.15223 61.1805 11.0444 60.5643 11.9143L57.1932 16.8625C59.3499 14.7239 64.4795 10.7289 68.3943 12.0774C72.3091 13.4258 69.5904 18.6561 67.3611 20.1242C68.0136 20.1242 69.6669 19.9721 70.6238 19.7981C71.5807 19.6241 73.2511 19.1461 74.0486 18.8742C73.9761 17.7505 74.5167 14.8288 76.8221 12.7844C79.7038 10.2289 82.8029 10.555 84.2166 11.9143C85.6303 13.2736 84.8144 15.5033 83.8357 16.5364C82.8571 17.5693 81.8785 18.3306 80.8455 18.8742C80.0191 19.3092 79.3409 19.5625 79.1053 19.635C79.2684 19.8887 79.9866 20.3855 81.5525 20.342C83.5099 20.2876 86.4462 19.4173 87.8055 18.6018C89.1647 17.7862 91.3392 16.6445 92.9158 15.1223C94.4924 13.6001 95.2539 12.7302 95.7977 12.4582C96.3414 12.1864 97.3207 12.2407 97.7557 12.4582C98.1905 12.6757 98.788 13.0562 98.6795 13.8713C98.5707 14.6869 97.9182 15.9378 97.4832 16.9709C97.0482 18.004 96.5046 19.255 96.8309 19.5813C97.1573 19.9073 98.2449 19.8527 99.3865 19.2004C100.528 18.5479 102.159 17.7321 103.247 16.9709C104.334 16.2097 105.476 15.3939 106.237 14.7414C106.998 14.089 108.249 12.1863 109.826 12.6213C111.403 13.0563 111.457 13.7634 111.294 14.5246C111.13 15.286 110.424 16.8082 110.315 17.678C110.206 18.5479 109.935 19.6347 112.055 18.928C113.752 18.3624 116.931 16.772 118.308 16.0471C118.762 15.739 119.787 15.2854 120.265 15.9377ZM38.1629 20.5051C37.6372 20.4688 36.206 20.233 35.5535 19.7981C34.9017 19.3635 34.792 19.2008 34.6834 19.092C34.6834 19.3643 34.644 20.1789 35.118 20.5051C35.9879 21.1032 37.456 20.7226 38.1629 20.5051ZM40.7215 18.2278C41.8123 18.0709 43.0679 16.3453 42.6756 15.3401C42.283 14.3349 40.8377 14.0889 39.3045 14.6877C37.7821 15.4489 36.9002 16.2919 37.2928 17.2971C37.6854 18.3023 39.6305 18.3845 40.7215 18.2278ZM63.99 18.4387C64.6972 18.0033 67.089 15.8287 66.491 15.0676C66.012 14.4593 63.2832 15.9742 61.9783 16.8078C61.6521 17.0434 60.8118 17.6423 60.1297 18.2756C59.3685 18.9824 58.7153 19.7621 58.4979 20.1789C59.3752 20.2693 60.4002 20.1771 61.1072 19.9133C61.9474 19.5998 63.2832 18.8737 63.99 18.4387ZM81.1717 15.2307C81.4434 14.9045 81.6062 14.4696 81.2801 14.2522C80.9535 14.035 79.7573 14.3613 79.0506 15.4485C78.4852 16.3184 78.3439 16.8081 78.2352 17.1887C78.677 17.0611 79.342 16.7229 79.7039 16.4817C80.1932 16.1554 80.8999 15.5568 81.1717 15.2307ZM109.934 0.550999C110.425 0.87798 114.828 4.79253 110.478 8.97873C106.999 12.3279 102.684 11.5701 100.963 10.7727C100.799 10.6639 100.408 10.3915 100.147 10.174C99.8212 9.90223 99.6037 9.57602 99.8211 9.19553C100.039 8.81518 101.017 9.08746 101.344 9.14182C101.67 9.19619 103.138 9.25051 105.149 8.97873C107.161 8.70687 108.739 6.4224 109.011 4.79123C109.282 3.16021 108.249 1.42017 108.14 1.09397C108.032 0.767846 107.814 0.441574 108.194 0.115452C108.575 -0.210781 109.445 0.224766 109.934 0.550999Z" fill="white"/>
</svg>
