<svg width="24" height="24" viewBox="0 0 24 24" fill="none" xmlns="http://www.w3.org/2000/svg">
  <path d="M4.5 7H10C11.6569 7 13 8.34315 13 10C13 11.6569 11.6569 13 10 13H4.5V7Z" stroke="currentColor" stroke-width="1.9" stroke-linejoin="round"/>
  <path d="M4.5 13H10.8C12.5673 13 14 14.3431 14 16C14 17.6569 12.5673 19 10.8 19H4.5V13Z" stroke="currentColor" stroke-width="1.9" stroke-linejoin="round"/>
  <path d="M17 8H21" stroke="currentColor" stroke-width="1.9" stroke-linecap="round"/>
  <path d="M16 14.9C16 13.2984 17.2536 12 18.8 12C20.3464 12 21.6 13.2984 21.6 14.9V15.5H16.05C16.2806 17.0353 17.3473 18 18.9 18C19.7737 18 20.4799 17.7372 21 17.15" stroke="currentColor" stroke-width="1.9" stroke-linecap="round" stroke-linejoin="round"/>
</svg>
