<svg width="20" height="20" viewBox="0 0 20 20" fill="none" xmlns="http://www.w3.org/2000/svg">
  <path d="M10.1 2.2C5.7 2.2 2.2 5.35 2.2 9.25c0 3.47 2.74 6.32 6.37 6.86.88.13 1.28-.39 1.28-.93 0-.32-.13-.65-.34-.93-.3-.39-.2-.96.33-1.06l1.48-.27c.58-.1.98.42.86.99-.15.71.38 1.37 1.1 1.23 2.68-.53 4.52-2.62 4.52-5.9 0-3.89-3.37-7.04-7.7-7.04Z" stroke="#626262" stroke-width="1.5" stroke-linejoin="round"/>
  <path d="M6.55 9.1h.02M8.55 6.65h.02M11.5 6.35h.02M13.75 8.45h.02" stroke="#626262" stroke-width="2.1" stroke-linecap="round"/>
</svg>
